<?xml version="1.0" standalone="no"?><!DOCTYPE svg PUBLIC "-//W3C//DTD SVG 1.1//EN" "http://www.w3.org/Graphics/SVG/1.1/DTD/svg11.dtd"><svg t="1514035389910" class="icon" style="" viewBox="0 0 1024 1024" version="1.1" xmlns="http://www.w3.org/2000/svg" p-id="1220" id="mx_n_1514035389911" xmlns:xlink="http://www.w3.org/1999/xlink" width="200" height="200"><defs><style type="text/css"></style></defs><path d="M778.605-292.398c16.26 2.646 32.689 4.525 48.77 8.059 56.489 12.441 107.071 37.45 151.706 74.106 29.289 24.045 41.246 55.394 32.77 92.546-7.615 33.397-28.974 55.889-61.925 65.499-31.152 9.089-59.334 2.19-84.916-18.318-32.417-25.989-68.407-43.969-111.543-40.124-36.551 3.26-71.511 41.713-68.368 76.048 1.409 15.361 6.898 30.371 10.796 45.47 6.898 26.693 13.994 53.319 21.007 79.974 1.213 4.603 2.335 8.267 8.763 8.619 98.255 5.373 186.771 37.321 265.661 96.599 77.564 58.288 141.068 128.222 183.626 216.111 31.231 64.495 48.741 132.604 53.374 204.101 6.156 94.995-5.007 187.945-41.989 275.717-85.946 203.918-237.156 335.44-449.719 395.917-80.884 23.015-163.781 32-247.693 27.241-174.397-9.922-325.477-75.814-452.759-194.947-125.577-117.517-203.867-261.997-231.106-431.621-37.058-230.702 19.781-437.567 170.105-616.959 82.581-98.542 185.623-169.558 305.787-215.406 41.417-15.805 86.742-1.094 109.47 35.077 23.212 36.929 17.772 84.446-14.397 113.866-9.089 8.306-20.565 14.867-32.039 19.548-183.198 74.796-304.234 206.512-352.3 398.606-46.631 186.393-5.398 356.982 113.668 507.292 74.64 94.225 171.057 157.51 287.764 188.583 75.436 20.082 151.643 21.398 228.485 9.52 79.269-12.257 153.298-38.324 219.696-83.781 91.371-62.551 156.451-145.984 189.001-252.074 28.114-91.631 29.079-184.123-5.659-275.050-27.957-73.18-77.353-129.487-139.318-175.922-33.108-24.8-68.655-44.192-109.183-53.686-1.839-0.43-3.715-0.639-7.068-1.185 5.53 21.215 10.681 41.349 16.002 61.434 12.842 48.455 25.989 96.85 38.623 145.37 27.449 105.454 0.899 197.842-71.719 276.576-67.169 72.817-152.685 104.489-250.783 94.995-109.211-10.577-187.163-69.842-238.030-165.804-26.64-50.257-38.13-104.41-40.254-161.081-3.378-90.236 17.682-173.548 69.374-248.006 55.513-79.987 132.42-131.298 223.269-163.195 7.145-2.505 14.383-4.799 22.769-7.575-4.877-18.556-9.988-36.667-14.383-54.965-6.051-25.154-13.835-50.165-16.875-75.724-9.010-75.554 14.187-141.287 66.387-196.302 42.746-45.053 94.606-73.621 156.711-82.164 6.844-0.94 13.667-1.983 20.484-2.973 9.323 0 18.636 0 27.957 0zM584.649 294.203c-53.802 17.094-100.265 43.188-135.081 86.637-46.617 58.17-55.917 124.989-41.036 196.017 7.721 36.866 25.753 68.433 57.402 90.457 39.575 27.541 93.472 26.353 134.86-2.294 42.302-29.289 61.131-76.532 48.77-124.989-13.534-53.072-27.929-105.937-41.938-158.905-7.551-28.518-15.074-57.037-22.975-86.923z" fill="#ffffff" p-id="1221"></path></svg>